<svg id="Layer_1" data-name="Layer 1" xmlns="http://www.w3.org/2000/svg" viewBox="0 0 89.65 113.07"><defs><style>.cls-1{fill:#502e91;}.cls-2,.cls-3{fill:#fff;}.cls-2,.cls-5{opacity:0.2;}.cls-2,.cls-3,.cls-5{isolation:isolate;}.cls-3{opacity:0.07;}.cls-4{fill:#545562;}.cls-5{fill:#010101;}</style></defs><title>Client</title><polygon class="cls-1" points="89.65 97.51 70.12 105.66 47.44 26.55 52.76 20.23 62.51 18.72 89.65 97.51"/><polygon class="cls-2" points="89.65 97.51 70.12 105.66 47.44 26.55 52.76 20.23 62.51 18.72 89.65 97.51"/><polygon class="cls-1" points="52.76 20.23 18.86 24.58 36.24 108.3 70.12 105.66 52.76 20.23"/><polygon class="cls-3" points="52.76 20.23 18.86 24.58 36.24 108.3 70.12 105.66 52.76 20.23"/><path class="cls-4" d="M269.37,347.07l.1.53c-12.4,2.49-10.15,22.26-10.15,22.46l-.54.07C258.73,369.92,256.43,349.67,269.37,347.07Z" transform="translate(-238.23 -346.83)"/><polygon class="cls-1" points="54.1 111.45 33 113.07 36.25 30.83 43.28 26.5 53.02 28.13 54.1 111.45"/><polygon class="cls-5" points="54.1 111.45 33 113.07 36.25 30.83 43.28 26.5 53.02 28.13 54.1 111.45"/><polygon class="cls-1" points="43.28 26.5 9.74 20.01 0 104.96 33 113.07 43.28 26.5"/><path class="cls-4" d="M283.1,372.67h-.54c0-.23.38-23.06-12.73-25.16a6.88,6.88,0,0,0-6.27,1.74c-5.41,5.36-3.18,20.52-3.15,20.67l-.53.08c-.1-.63-2.3-15.58,3.3-21.14a7.4,7.4,0,0,1,6.74-1.89C283.48,349.14,283.1,372.44,283.1,372.67Z" transform="translate(-238.23 -346.83)"/><path class="cls-4" d="M272.56,372.37l-.49-.23c.08-.18,8.42-18.24-2.6-24.54l.27-.47C281.19,353.67,272.65,372.18,272.56,372.37Z" transform="translate(-238.23 -346.83)"/></svg>