<svg id="Layer_1" data-name="Layer 1" xmlns="http://www.w3.org/2000/svg" viewBox="0 0 269.7 216.45"><defs><style>.cls-1{fill:#4f2e91;}.cls-2{fill:none;stroke:#4f2e91;stroke-linecap:round;stroke-linejoin:round;stroke-width:3.61px;}.cls-3{fill:#686969;}</style></defs><title>Couterier</title><ellipse class="cls-1" cx="74.28" cy="212.66" rx="21.8" ry="3.79"/><path class="cls-2" d="M234.57,427c-23.64,6.24-10.88,32.73.38,37.67,20.09,8.81,47.05,6.39,55.45-27,6.14-24.42,52.77-61.41,78-27.57s64.84,3.09,65.4-28.87S378,309.94,345.46,324.57s-69,108.43-108,40.85c-29.06-50.39-60.92-12.71-42.17,24.82,41.41,82.91-34.27,79.36-27.06,36.07" transform="translate(-165.91 -319.61)"/><path class="cls-3" d="M248.81,489a61.71,61.71,0,0,0,7.06-19.16c.24-.95.47-1.91.68-2.86.29-1.41.52-2.78.66-4.06a15.11,15.11,0,0,0,0-4.49,1.8,1.8,0,0,1-.06-.22c0-4.71-.94-8.19-2.81-9.06-5.34-2.47-11.86-5.4-19,9.18A25.62,25.62,0,0,0,234,461.7c.52.42,1.05.81,1.61,1.18a17.53,17.53,0,0,0,4.11,1.94c2-4.76,5.08-8.76,7.45-8.06.92.93,2.67,3.5,1.47,8.67a23.86,23.86,0,0,1-1.24,3.73c-.13.31-.25.6-.39.92-2.35,5.1-4.49,7.77-6.18,8.53a3.31,3.31,0,0,1-1-.16c-2.78-1-2.69-5.55-1.29-10.28a21.06,21.06,0,0,1-4.84-2.31c-.25-.16-.48-.33-.71-.49-5.06,20.31-6.1,63.11-6.1,63.11S240.42,502.89,248.81,489Z" transform="translate(-165.91 -319.61)"/></svg>