<?xml version="1.0" encoding="utf-8"?>
<!-- Generator: Adobe Illustrator 23.0.2, SVG Export Plug-In . SVG Version: 6.00 Build 0)  -->
<svg version="1.1" id="Layer_1" xmlns="http://www.w3.org/2000/svg" xmlns:xlink="http://www.w3.org/1999/xlink" x="0px" y="0px"
	 viewBox="0 0 32 32" style="enable-background:new 0 0 32 32;" xml:space="preserve">
<style type="text/css">
	.st0{fill:#FFFFFF;}
</style>
<title>google</title>
<path class="st0" d="M16.3,13.7v5.5h9.1c-0.4,2.4-2.7,6.9-9.1,6.9c-5.5,0-9.9-4.5-9.9-10.1s4.5-10.1,9.9-10.1c3.1,0,5.2,1.3,6.4,2.5
	L27,4.2C24.3,1.6,20.6,0,16.3,0c-8.8,0-16,7.2-16,16s7.2,16,16,16c9.2,0,15.4-6.5,15.4-15.6c0-1-0.1-1.8-0.3-2.6L16.3,13.7z"/>
</svg>
